<svg class="main-svg" xmlns="http://www.w3.org/2000/svg" xmlns:xlink="http://www.w3.org/1999/xlink" width="900" height="500" style="" viewBox="0 0 900 500"><rect x="0" y="0" width="900" height="500" style="fill: rgb(247, 247, 247); fill-opacity: 1;"/><defs id="defs-4735bf"><g class="clips"><clipPath id="clip4735bfxyplot" class="plotclip"><rect width="685" height="320"/></clipPath><clipPath class="axesclip" id="clip4735bfx"><rect x="80" y="0" width="685" height="500"/></clipPath><clipPath class="axesclip" id="clip4735bfy"><rect x="0" y="100" width="900" height="320"/></clipPath><clipPath class="axesclip" id="clip4735bfxy"><rect x="80" y="100" width="685" height="320"/></clipPath></g><g class="gradients"/><g class="patterns"/></defs><g class="bglayer"/><g class="layer-below"><g class="imagelayer"/><g class="shapelayer"/></g><g class="cartesianlayer"><g class="subplot xy"><g class="layer-subplot"><g class="shapelayer"/><g class="imagelayer"/></g><g class="minor-gridlayer"><g class="x"/><g class="y"/></g><g class="gridlayer"><g class="x"><path class="xgrid crisp" transform="translate(123.2,0)" d="M0,100v320" style="stroke: rgb(255, 255, 255); stroke-opacity: 1; stroke-width: 1px;"/><path class="xgrid crisp" transform="translate(246.62,0)" d="M0,100v320" style="stroke: rgb(255, 255, 255); stroke-opacity: 1; stroke-width: 1px;"/><path class="xgrid crisp" transform="translate(370.05,0)" d="M0,100v320" style="stroke: rgb(255, 255, 255); stroke-opacity: 1; stroke-width: 1px;"/><path class="xgrid crisp" transform="translate(493.47,0)" d="M0,100v320" style="stroke: rgb(255, 255, 255); stroke-opacity: 1; stroke-width: 1px;"/><path class="xgrid crisp" transform="translate(616.89,0)" d="M0,100v320" style="stroke: rgb(255, 255, 255); stroke-opacity: 1; stroke-width: 1px;"/><path class="xgrid crisp" transform="translate(740.32,0)" d="M0,100v320" style="stroke: rgb(255, 255, 255); stroke-opacity: 1; stroke-width: 1px;"/></g><g class="y"><path class="ygrid crisp" transform="translate(0,342)" d="M80,0h685" style="stroke: rgb(255, 255, 255); stroke-opacity: 1; stroke-width: 1px;"/><path class="ygrid crisp" transform="translate(0,294.05)" d="M80,0h685" style="stroke: rgb(255, 255, 255); stroke-opacity: 1; stroke-width: 1px;"/><path class="ygrid crisp" transform="translate(0,246.1)" d="M80,0h685" style="stroke: rgb(255, 255, 255); stroke-opacity: 1; stroke-width: 1px;"/><path class="ygrid crisp" transform="translate(0,198.16)" d="M80,0h685" style="stroke: rgb(255, 255, 255); stroke-opacity: 1; stroke-width: 1px;"/><path class="ygrid crisp" transform="translate(0,150.21)" d="M80,0h685" style="stroke: rgb(255, 255, 255); stroke-opacity: 1; stroke-width: 1px;"/><path class="ygrid crisp" transform="translate(0,102.26)" d="M80,0h685" style="stroke: rgb(255, 255, 255); stroke-opacity: 1; stroke-width: 1px;"/></g></g><g class="zerolinelayer"><path class="yzl zl crisp" transform="translate(0,389.95)" d="M80,0h685" style="stroke: rgb(255, 255, 255); stroke-opacity: 1; stroke-width: 2px;"/></g><g class="layer-between"><g class="shapelayer"/><g class="imagelayer"/></g><path class="xlines-below"/><path class="ylines-below"/><g class="overlines-below"/><g class="xaxislayer-below"/><g class="yaxislayer-below"/><g class="overaxes-below"/><g class="overplot"><g class="xy" transform="translate(80,100)" clip-path="url(#clip4735bfxyplot)"><g class="scatterlayer mlayer"><g class="trace scatter tracea7d117" style="stroke-miterlimit: 2; opacity: 1;"><g class="fills"/><g class="errorbars"/><g class="lines"><path class="js-line" d="M0,285.65L12.34,289.66L30.86,271.37L55.54,291.62L67.88,288.39L74.05,273.64L80.23,288.41L92.57,286.34L98.74,286.84L104.91,284.04L111.08,286.81L117.25,287.92L123.42,284.22L129.59,287.76L135.77,287.96L148.11,287.96L154.28,286.09L160.45,278.48L166.62,287.17L172.79,278.93L178.96,285.52L185.14,280.37L191.31,288.47L203.65,275.44L209.82,285.69L222.16,285.96L228.33,280.63L234.5,288.85L240.68,283.55L246.85,276.64L253.02,281.08L259.19,284.12L265.36,235.39L271.53,278.06L277.7,287.33L283.87,268.31L290.05,279.47L296.22,195.63L302.39,269.16L308.56,283.23L314.73,287.41L320.9,282.52L327.07,271.68L333.24,254.01L339.41,273.45L345.59,255.77L351.76,257.71L357.93,282.28L364.1,268.34L370.27,276.66L376.44,237.83L382.61,268.14L388.78,253.73L394.95,278.61L401.13,239.96L407.3,245.37L413.47,252.3L419.64,288.98L425.81,279.4L431.98,281.71L438.15,278.73L444.32,281.42L450.5,269.69L456.67,265.26L462.84,276.55L469.01,284.82L475.18,281.37L481.35,276.37L487.52,267.18L493.69,252.54L499.86,290.81L506.04,286.24L512.21,276.86L518.38,293.38L524.55,282.94L530.72,283.58L536.89,285.03L543.06,290.75L549.23,269.95L555.41,252.11L561.58,281.18L567.75,281.5L573.92,277.51L580.09,286.4L586.26,260.48L592.43,274.78L598.6,278L604.77,274.25L610.95,261.07L617.12,253.53L623.29,255.07L635.63,263.81L641.8,254.11L647.97,236.56L654.14,207.22L660.32,264.83L666.49,226.83L672.66,269.03L678.83,208.89L685,249.07" style="vector-effect: none; fill: none; stroke: rgb(221, 190, 169); stroke-opacity: 1; stroke-width: 2px; opacity: 1;"/></g><g class="points"/><g class="text"/></g><g class="trace scatter trace170b34" style="stroke-miterlimit: 2; opacity: 1;"><g class="fills"/><g class="errorbars"/><g class="lines"><path class="js-line" d="M12.34,263.82L18.51,278.96L43.2,289.97L49.37,284.55L61.71,286.64L67.88,289.41L74.05,280.15L80.23,289.31L86.4,290.87L111.08,284.07L117.25,288.63L123.42,283.67L129.59,286.54L135.77,287.62L141.94,287.49L148.11,287.13L154.28,67.73L160.45,175.43L166.62,202.96L172.79,278.35L178.96,212.13L185.14,281.25L191.31,285.26L197.48,281.08L203.65,259.17L209.82,287.9L215.99,286.31L222.16,283.27L228.33,153.98L234.5,260.96L240.68,266.95L246.85,246.67L253.02,270.65L259.19,276.35L265.36,274.06L271.53,283.99L277.7,280.24L283.87,235.52L290.05,259.66L296.22,267.16L302.39,242.2L308.56,241.24L314.73,231.96L320.9,183.43L327.07,263.43L333.24,138.31L339.41,244.64L345.59,162.17L351.76,226.19L357.93,241.47L364.1,196.42L370.27,132.75L376.44,204.42L382.61,158.87L388.78,304L394.95,100.96L401.13,165.77L407.3,186.52L413.47,194.52L419.64,212.12L425.81,181.41L431.98,183.24L438.15,207.69L444.32,203.08L450.5,219.95L456.67,219.92L462.84,186.49L469.01,149.76L475.18,122.75L481.35,182.25L487.52,169.31L493.69,176.83L499.86,108.23L506.04,165.21L512.21,156.06L518.38,127.53L524.55,164.42L530.72,132.53L536.89,140.39L543.06,123.26L549.23,137.59L555.41,115.58L561.58,110.82L567.75,132.12L573.92,145.37L580.09,128.24L586.26,116.57L592.43,80.05L598.6,89.19L604.77,91.83L610.95,37.09L617.12,75.62L623.29,67.66L629.46,18.41L635.63,66.83L641.8,16L647.97,29.77L654.14,27.23L660.32,254.89L672.66,63.02L678.83,128.5L685,94.91" style="vector-effect: none; fill: none; stroke: rgb(204, 213, 174); stroke-opacity: 1; stroke-width: 2px; opacity: 1;"/></g><g class="points"/><g class="text"/></g></g></g></g><path class="xlines-above crisp" d="M0,0" style="fill: none;"/><path class="ylines-above crisp" d="M0,0" style="fill: none;"/><g class="overlines-above"/><g class="xaxislayer-above"><g class="xtick"><text text-anchor="middle" x="0" y="433" transform="translate(123.2,0)" style="font-family: 'Open Sans', verdana, arial, sans-serif; font-size: 12px; fill: rgb(42, 63, 95); fill-opacity: 1; white-space: pre; opacity: 1;">1920</text></g><g class="xtick"><text text-anchor="middle" x="0" y="433" style="font-family: 'Open Sans', verdana, arial, sans-serif; font-size: 12px; fill: rgb(42, 63, 95); fill-opacity: 1; white-space: pre; opacity: 1;" transform="translate(246.62,0)">1940</text></g><g class="xtick"><text text-anchor="middle" x="0" y="433" style="font-family: 'Open Sans', verdana, arial, sans-serif; font-size: 12px; fill: rgb(42, 63, 95); fill-opacity: 1; white-space: pre; opacity: 1;" transform="translate(370.05,0)">1960</text></g><g class="xtick"><text text-anchor="middle" x="0" y="433" style="font-family: 'Open Sans', verdana, arial, sans-serif; font-size: 12px; fill: rgb(42, 63, 95); fill-opacity: 1; white-space: pre; opacity: 1;" transform="translate(493.47,0)">1980</text></g><g class="xtick"><text text-anchor="middle" x="0" y="433" style="font-family: 'Open Sans', verdana, arial, sans-serif; font-size: 12px; fill: rgb(42, 63, 95); fill-opacity: 1; white-space: pre; opacity: 1;" transform="translate(616.89,0)">2000</text></g><g class="xtick"><text text-anchor="middle" x="0" y="433" style="font-family: 'Open Sans', verdana, arial, sans-serif; font-size: 12px; fill: rgb(42, 63, 95); fill-opacity: 1; white-space: pre; opacity: 1;" transform="translate(740.32,0)">2020</text></g></g><g class="yaxislayer-above"><g class="ytick"><text text-anchor="end" x="79" y="4.199999999999999" transform="translate(0,389.95)" style="font-family: 'Open Sans', verdana, arial, sans-serif; font-size: 12px; fill: rgb(42, 63, 95); fill-opacity: 1; white-space: pre; opacity: 1;">0</text></g><g class="ytick"><text text-anchor="end" x="79" y="4.199999999999999" style="font-family: 'Open Sans', verdana, arial, sans-serif; font-size: 12px; fill: rgb(42, 63, 95); fill-opacity: 1; white-space: pre; opacity: 1;" transform="translate(0,342)">20M</text></g><g class="ytick"><text text-anchor="end" x="79" y="4.199999999999999" style="font-family: 'Open Sans', verdana, arial, sans-serif; font-size: 12px; fill: rgb(42, 63, 95); fill-opacity: 1; white-space: pre; opacity: 1;" transform="translate(0,294.05)">40M</text></g><g class="ytick"><text text-anchor="end" x="79" y="4.199999999999999" style="font-family: 'Open Sans', verdana, arial, sans-serif; font-size: 12px; fill: rgb(42, 63, 95); fill-opacity: 1; white-space: pre; opacity: 1;" transform="translate(0,246.1)">60M</text></g><g class="ytick"><text text-anchor="end" x="79" y="4.199999999999999" style="font-family: 'Open Sans', verdana, arial, sans-serif; font-size: 12px; fill: rgb(42, 63, 95); fill-opacity: 1; white-space: pre; opacity: 1;" transform="translate(0,198.16)">80M</text></g><g class="ytick"><text text-anchor="end" x="79" y="4.199999999999999" style="font-family: 'Open Sans', verdana, arial, sans-serif; font-size: 12px; fill: rgb(42, 63, 95); fill-opacity: 1; white-space: pre; opacity: 1;" transform="translate(0,150.21)">100M</text></g><g class="ytick"><text text-anchor="end" x="79" y="4.199999999999999" style="font-family: 'Open Sans', verdana, arial, sans-serif; font-size: 12px; fill: rgb(42, 63, 95); fill-opacity: 1; white-space: pre; opacity: 1;" transform="translate(0,102.26)">120M</text></g></g><g class="overaxes-above"/></g></g><g class="polarlayer"/><g class="smithlayer"/><g class="ternarylayer"/><g class="geolayer"/><g class="funnelarealayer"/><g class="pielayer"/><g class="iciclelayer"/><g class="treemaplayer"/><g class="sunburstlayer"/><g class="glimages"/><defs id="topdefs-4735bf"><g class="clips"/><clipPath id="legend4735bf"><rect width="109" height="67" x="0" y="0"/></clipPath></defs><g class="layer-above"><g class="imagelayer"/><g class="shapelayer"/></g><g class="infolayer"><g class="legend" pointer-events="all" transform="translate(778.7,100)"><rect class="bg" shape-rendering="crispEdges" width="109" height="67" x="0" y="0" style="stroke: rgb(68, 68, 68); stroke-opacity: 1; fill: rgb(247, 247, 247); fill-opacity: 1; stroke-width: 0px;"/><g class="scrollbox" transform="" clip-path="url(#legend4735bf)"><text class="legendtitletext" text-anchor="start" x="2" y="18.2" style="font-family: 'Open Sans', verdana, arial, sans-serif; font-size: 14px; fill: rgb(42, 63, 95); fill-opacity: 1; white-space: pre;">Content Warning</text><g class="groups" transform=""><g class="traces" transform="translate(0,32.7)" style="opacity: 1;"><text class="legendtext" text-anchor="start" x="40" y="4.680000000000001" style="font-family: 'Open Sans', verdana, arial, sans-serif; font-size: 12px; fill: rgb(42, 63, 95); fill-opacity: 1; white-space: pre;">False</text><g class="layers" style="opacity: 1;"><g class="legendfill"/><g class="legendlines"><path class="js-line" d="M5,0h30" style="fill: none; stroke: rgb(221, 190, 169); stroke-opacity: 1; stroke-width: 2px;"/></g><g class="legendsymbols"><g class="legendpoints"/></g></g><rect class="legendtoggle" x="0" y="-9.5" width="69.671875" height="19" style="fill: rgb(0, 0, 0); fill-opacity: 0;"/></g></g><g class="groups" transform=""><g class="traces" transform="translate(0,51.7)" style="opacity: 1;"><text class="legendtext" text-anchor="start" x="40" y="4.680000000000001" style="font-family: 'Open Sans', verdana, arial, sans-serif; font-size: 12px; fill: rgb(42, 63, 95); fill-opacity: 1; white-space: pre;">True</text><g class="layers" style="opacity: 1;"><g class="legendfill"/><g class="legendlines"><path class="js-line" d="M5,0h30" style="fill: none; stroke: rgb(204, 213, 174); stroke-opacity: 1; stroke-width: 2px;"/></g><g class="legendsymbols"><g class="legendpoints"/></g></g><rect class="legendtoggle" x="0" y="-9.5" width="69.671875" height="19" style="fill: rgb(0, 0, 0); fill-opacity: 0;"/></g></g></g><rect class="scrollbar" rx="20" ry="3" width="0" height="0" x="0" y="0" style="fill: rgb(128, 139, 164); fill-opacity: 1;"/></g><g class="g-gtitle"><text class="gtitle" x="45" y="50" text-anchor="start" dy="0em" style="opacity: 1; font-family: 'Open Sans', verdana, arial, sans-serif; font-size: 17px; fill: rgb(42, 63, 95); fill-opacity: 1; white-space: pre;">Profit Over Time by Warnings</text></g><g class="g-xtitle"><text class="xtitle" x="422.5" y="460.3" text-anchor="middle" style="opacity: 1; font-family: 'Open Sans', verdana, arial, sans-serif; font-size: 14px; fill: rgb(42, 63, 95); fill-opacity: 1; white-space: pre;">Release Year</text></g><g class="g-ytitle"><text class="ytitle" transform="rotate(-90,29.56875,260)" x="29.56875" y="260" text-anchor="middle" style="opacity: 1; font-family: 'Open Sans', verdana, arial, sans-serif; font-size: 14px; fill: rgb(42, 63, 95); fill-opacity: 1; white-space: pre;">Profit</text></g></g></svg>