<svg class="main-svg" xmlns="http://www.w3.org/2000/svg" xmlns:xlink="http://www.w3.org/1999/xlink" width="900" height="500" style="" viewBox="0 0 900 500"><rect x="0" y="0" width="900" height="500" style="fill: rgb(247, 247, 247); fill-opacity: 1;"/><defs id="defs-42386a"><g class="clips"><clipPath id="clip42386axyplot" class="plotclip"><rect width="685" height="320"/></clipPath><clipPath class="axesclip" id="clip42386ax"><rect x="80" y="0" width="685" height="500"/></clipPath><clipPath class="axesclip" id="clip42386ay"><rect x="0" y="100" width="900" height="320"/></clipPath><clipPath class="axesclip" id="clip42386axy"><rect x="80" y="100" width="685" height="320"/></clipPath></g><g class="gradients"/><g class="patterns"/></defs><g class="bglayer"/><g class="layer-below"><g class="imagelayer"/><g class="shapelayer"/></g><g class="cartesianlayer"><g class="subplot xy"><g class="layer-subplot"><g class="shapelayer"/><g class="imagelayer"/></g><g class="minor-gridlayer"><g class="x"/><g class="y"/></g><g class="gridlayer"><g class="x"><path class="xgrid crisp" transform="translate(123.2,0)" d="M0,100v320" style="stroke: rgb(255, 255, 255); stroke-opacity: 1; stroke-width: 1px;"/><path class="xgrid crisp" transform="translate(246.62,0)" d="M0,100v320" style="stroke: rgb(255, 255, 255); stroke-opacity: 1; stroke-width: 1px;"/><path class="xgrid crisp" transform="translate(370.05,0)" d="M0,100v320" style="stroke: rgb(255, 255, 255); stroke-opacity: 1; stroke-width: 1px;"/><path class="xgrid crisp" transform="translate(493.47,0)" d="M0,100v320" style="stroke: rgb(255, 255, 255); stroke-opacity: 1; stroke-width: 1px;"/><path class="xgrid crisp" transform="translate(616.89,0)" d="M0,100v320" style="stroke: rgb(255, 255, 255); stroke-opacity: 1; stroke-width: 1px;"/><path class="xgrid crisp" transform="translate(740.32,0)" d="M0,100v320" style="stroke: rgb(255, 255, 255); stroke-opacity: 1; stroke-width: 1px;"/></g><g class="y"><path class="ygrid crisp" transform="translate(0,365.84)" d="M80,0h685" style="stroke: rgb(255, 255, 255); stroke-opacity: 1; stroke-width: 1px;"/><path class="ygrid crisp" transform="translate(0,326.40999999999997)" d="M80,0h685" style="stroke: rgb(255, 255, 255); stroke-opacity: 1; stroke-width: 1px;"/><path class="ygrid crisp" transform="translate(0,286.99)" d="M80,0h685" style="stroke: rgb(255, 255, 255); stroke-opacity: 1; stroke-width: 1px;"/><path class="ygrid crisp" transform="translate(0,247.57)" d="M80,0h685" style="stroke: rgb(255, 255, 255); stroke-opacity: 1; stroke-width: 1px;"/><path class="ygrid crisp" transform="translate(0,208.14)" d="M80,0h685" style="stroke: rgb(255, 255, 255); stroke-opacity: 1; stroke-width: 1px;"/><path class="ygrid crisp" transform="translate(0,168.72)" d="M80,0h685" style="stroke: rgb(255, 255, 255); stroke-opacity: 1; stroke-width: 1px;"/><path class="ygrid crisp" transform="translate(0,129.3)" d="M80,0h685" style="stroke: rgb(255, 255, 255); stroke-opacity: 1; stroke-width: 1px;"/></g></g><g class="zerolinelayer"><path class="yzl zl crisp" transform="translate(0,405.26)" d="M80,0h685" style="stroke: rgb(255, 255, 255); stroke-opacity: 1; stroke-width: 2px;"/></g><g class="layer-between"><g class="shapelayer"/><g class="imagelayer"/></g><path class="xlines-below"/><path class="ylines-below"/><g class="overlines-below"/><g class="xaxislayer-below"/><g class="yaxislayer-below"/><g class="overaxes-below"/><g class="overplot"><g class="xy" transform="translate(80,100)" clip-path="url(#clip42386axyplot)"><g class="scatterlayer mlayer"><g class="trace scatter traceb331d2" style="stroke-miterlimit: 2; opacity: 1;"><g class="fills"/><g class="errorbars"/><g class="lines"><path class="js-line" d="M0,303.45L12.34,300.06L30.86,304L55.54,296.12L67.88,301.63L74.05,299.9L80.23,301.56L86.4,301.69L92.57,300.89L98.74,303.21L104.91,300.14L111.08,300.83L117.25,299.32L123.42,297.94L129.59,301.65L135.77,299.88L141.94,300.45L148.11,301.21L154.28,299.56L160.45,296.55L166.62,298.41L172.79,300L178.96,298.51L185.14,298.77L191.31,300.72L203.65,297.74L209.82,296.88L215.99,298.42L222.16,297.92L228.33,297.9L234.5,300.25L246.85,297.92L253.02,297.83L259.19,295.76L265.36,291.56L271.53,299.36L277.7,301.11L283.87,296L290.05,298.9L296.22,291.52L302.39,292.54L314.73,295.51L320.9,291.79L327.07,294.9L333.24,293.36L339.41,294.36L345.59,299.52L351.76,293.6L357.93,290.15L364.1,296.55L370.27,298.81L376.44,294.88L382.61,296.43L388.78,295.99L394.95,296.43L401.13,296.85L407.3,295.95L413.47,296.33L419.64,298.04L438.15,296.44L444.32,294.02L450.5,296.07L456.67,294.83L469.01,294.29L475.18,295.12L481.35,294.34L487.52,290.75L493.69,294.69L499.86,294.28L506.04,296.75L512.21,295.2L524.55,296.71L530.72,295.78L536.89,296.14L543.06,295.39L549.23,292.23L555.41,294.42L561.58,295.75L567.75,295.48L580.09,296.13L586.26,294.98L592.43,296.67L598.6,297.47L623.29,294.85L629.46,295.71L641.8,296.03L647.97,294.92L654.14,293.41L660.32,294.16L666.49,287.81L672.66,288.78L678.83,285.47L685,250.26" style="vector-effect: none; fill: none; stroke: rgb(221, 190, 169); stroke-opacity: 1; stroke-width: 2px; opacity: 1;"/></g><g class="points"/><g class="text"/></g><g class="trace scatter trace01c00a" style="stroke-miterlimit: 2; opacity: 1;"><g class="fills"/><g class="errorbars"/><g class="lines"><path class="js-line" d="M12.34,294.38L18.51,299.23L43.2,296.43L49.37,281.37L61.71,294.14L67.88,297.67L74.05,296.15L80.23,298.13L86.4,291.33L104.91,289.18L111.08,292.74L117.25,292.99L123.42,296.49L129.59,296.12L135.77,296.94L141.94,296.53L148.11,294.18L154.28,271.16L160.45,282.71L166.62,285.17L172.79,284.76L178.96,293.68L185.14,287.76L191.31,293.85L197.48,295.59L203.65,287.13L209.82,281.48L215.99,293.4L222.16,291.52L228.33,281.42L234.5,286.45L240.68,287.99L246.85,285.95L253.02,282.67L259.19,293.47L265.36,292.55L271.53,287.62L277.7,292.24L283.87,285.98L290.05,282.27L296.22,288.66L302.39,289.89L308.56,286.89L314.73,286.16L320.9,284.03L333.24,282.23L339.41,282.55L351.76,291.23L357.93,290.25L364.1,283.54L370.27,285.81L376.44,284.71L382.61,286.24L388.78,283.67L394.95,288.74L407.3,284.38L413.47,285.81L419.64,289.9L425.81,289.02L431.98,287.76L438.15,283.32L444.32,287.48L450.5,287.06L456.67,288.52L462.84,284.84L469.01,286.02L475.18,284.21L481.35,289.46L487.52,288.35L493.69,285.06L499.86,279.75L506.04,284.26L512.21,285.31L524.55,285.43L530.72,281.89L536.89,280.98L543.06,281.96L549.23,285.29L555.41,282.08L561.58,280.96L567.75,283.59L573.92,284.74L580.09,283.63L586.26,283.31L592.43,280.91L598.6,279.64L604.77,283.52L610.95,282.1L617.12,281.82L623.29,276.26L629.46,277.39L635.63,280.68L641.8,278.98L647.97,275.25L654.14,278.25L660.32,279.85L666.49,267.85L672.66,268.95L678.83,257.44L685,16" style="vector-effect: none; fill: none; stroke: rgb(204, 213, 174); stroke-opacity: 1; stroke-width: 2px; opacity: 1;"/></g><g class="points"/><g class="text"/></g></g></g></g><path class="xlines-above crisp" d="M0,0" style="fill: none;"/><path class="ylines-above crisp" d="M0,0" style="fill: none;"/><g class="overlines-above"/><g class="xaxislayer-above"><g class="xtick"><text text-anchor="middle" x="0" y="433" transform="translate(123.2,0)" style="font-family: 'Open Sans', verdana, arial, sans-serif; font-size: 12px; fill: rgb(42, 63, 95); fill-opacity: 1; white-space: pre; opacity: 1;">1920</text></g><g class="xtick"><text text-anchor="middle" x="0" y="433" style="font-family: 'Open Sans', verdana, arial, sans-serif; font-size: 12px; fill: rgb(42, 63, 95); fill-opacity: 1; white-space: pre; opacity: 1;" transform="translate(246.62,0)">1940</text></g><g class="xtick"><text text-anchor="middle" x="0" y="433" style="font-family: 'Open Sans', verdana, arial, sans-serif; font-size: 12px; fill: rgb(42, 63, 95); fill-opacity: 1; white-space: pre; opacity: 1;" transform="translate(370.05,0)">1960</text></g><g class="xtick"><text text-anchor="middle" x="0" y="433" style="font-family: 'Open Sans', verdana, arial, sans-serif; font-size: 12px; fill: rgb(42, 63, 95); fill-opacity: 1; white-space: pre; opacity: 1;" transform="translate(493.47,0)">1980</text></g><g class="xtick"><text text-anchor="middle" x="0" y="433" style="font-family: 'Open Sans', verdana, arial, sans-serif; font-size: 12px; fill: rgb(42, 63, 95); fill-opacity: 1; white-space: pre; opacity: 1;" transform="translate(616.89,0)">2000</text></g><g class="xtick"><text text-anchor="middle" x="0" y="433" style="font-family: 'Open Sans', verdana, arial, sans-serif; font-size: 12px; fill: rgb(42, 63, 95); fill-opacity: 1; white-space: pre; opacity: 1;" transform="translate(740.32,0)">2020</text></g></g><g class="yaxislayer-above"><g class="ytick"><text text-anchor="end" x="79" y="4.199999999999999" transform="translate(0,405.26)" style="font-family: 'Open Sans', verdana, arial, sans-serif; font-size: 12px; fill: rgb(42, 63, 95); fill-opacity: 1; white-space: pre; opacity: 1;">0</text></g><g class="ytick"><text text-anchor="end" x="79" y="4.199999999999999" style="font-family: 'Open Sans', verdana, arial, sans-serif; font-size: 12px; fill: rgb(42, 63, 95); fill-opacity: 1; white-space: pre; opacity: 1;" transform="translate(0,365.84)">50</text></g><g class="ytick"><text text-anchor="end" x="79" y="4.199999999999999" style="font-family: 'Open Sans', verdana, arial, sans-serif; font-size: 12px; fill: rgb(42, 63, 95); fill-opacity: 1; white-space: pre; opacity: 1;" transform="translate(0,326.40999999999997)">100</text></g><g class="ytick"><text text-anchor="end" x="79" y="4.199999999999999" style="font-family: 'Open Sans', verdana, arial, sans-serif; font-size: 12px; fill: rgb(42, 63, 95); fill-opacity: 1; white-space: pre; opacity: 1;" transform="translate(0,286.99)">150</text></g><g class="ytick"><text text-anchor="end" x="79" y="4.199999999999999" style="font-family: 'Open Sans', verdana, arial, sans-serif; font-size: 12px; fill: rgb(42, 63, 95); fill-opacity: 1; white-space: pre; opacity: 1;" transform="translate(0,247.57)">200</text></g><g class="ytick"><text text-anchor="end" x="79" y="4.199999999999999" style="font-family: 'Open Sans', verdana, arial, sans-serif; font-size: 12px; fill: rgb(42, 63, 95); fill-opacity: 1; white-space: pre; opacity: 1;" transform="translate(0,208.14)">250</text></g><g class="ytick"><text text-anchor="end" x="79" y="4.199999999999999" style="font-family: 'Open Sans', verdana, arial, sans-serif; font-size: 12px; fill: rgb(42, 63, 95); fill-opacity: 1; white-space: pre; opacity: 1;" transform="translate(0,168.72)">300</text></g><g class="ytick"><text text-anchor="end" x="79" y="4.199999999999999" style="font-family: 'Open Sans', verdana, arial, sans-serif; font-size: 12px; fill: rgb(42, 63, 95); fill-opacity: 1; white-space: pre; opacity: 1;" transform="translate(0,129.3)">350</text></g></g><g class="overaxes-above"/></g></g><g class="polarlayer"/><g class="smithlayer"/><g class="ternarylayer"/><g class="geolayer"/><g class="funnelarealayer"/><g class="pielayer"/><g class="iciclelayer"/><g class="treemaplayer"/><g class="sunburstlayer"/><g class="glimages"/><defs id="topdefs-42386a"><g class="clips"/><clipPath id="legend42386a"><rect width="109" height="67" x="0" y="0"/></clipPath></defs><g class="layer-above"><g class="imagelayer"/><g class="shapelayer"/></g><g class="infolayer"><g class="legend" pointer-events="all" transform="translate(778.7,100)"><rect class="bg" shape-rendering="crispEdges" width="109" height="67" x="0" y="0" style="stroke: rgb(68, 68, 68); stroke-opacity: 1; fill: rgb(247, 247, 247); fill-opacity: 1; stroke-width: 0px;"/><g class="scrollbox" transform="" clip-path="url(#legend42386a)"><text class="legendtitletext" text-anchor="start" x="2" y="18.2" style="font-family: 'Open Sans', verdana, arial, sans-serif; font-size: 14px; fill: rgb(42, 63, 95); fill-opacity: 1; white-space: pre;">Content Warning</text><g class="groups" transform=""><g class="traces" transform="translate(0,32.7)" style="opacity: 1;"><text class="legendtext" text-anchor="start" x="40" y="4.680000000000001" style="font-family: 'Open Sans', verdana, arial, sans-serif; font-size: 12px; fill: rgb(42, 63, 95); fill-opacity: 1; white-space: pre;">False</text><g class="layers" style="opacity: 1;"><g class="legendfill"/><g class="legendlines"><path class="js-line" d="M5,0h30" style="fill: none; stroke: rgb(221, 190, 169); stroke-opacity: 1; stroke-width: 2px;"/></g><g class="legendsymbols"><g class="legendpoints"/></g></g><rect class="legendtoggle" x="0" y="-9.5" width="69.671875" height="19" style="fill: rgb(0, 0, 0); fill-opacity: 0;"/></g></g><g class="groups" transform=""><g class="traces" transform="translate(0,51.7)" style="opacity: 1;"><text class="legendtext" text-anchor="start" x="40" y="4.680000000000001" style="font-family: 'Open Sans', verdana, arial, sans-serif; font-size: 12px; fill: rgb(42, 63, 95); fill-opacity: 1; white-space: pre;">True</text><g class="layers" style="opacity: 1;"><g class="legendfill"/><g class="legendlines"><path class="js-line" d="M5,0h30" style="fill: none; stroke: rgb(204, 213, 174); stroke-opacity: 1; stroke-width: 2px;"/></g><g class="legendsymbols"><g class="legendpoints"/></g></g><rect class="legendtoggle" x="0" y="-9.5" width="69.671875" height="19" style="fill: rgb(0, 0, 0); fill-opacity: 0;"/></g></g></g><rect class="scrollbar" rx="20" ry="3" width="0" height="0" x="0" y="0" style="fill: rgb(128, 139, 164); fill-opacity: 1;"/></g><g class="g-gtitle"><text class="gtitle" x="45" y="50" text-anchor="start" dy="0em" style="opacity: 1; font-family: 'Open Sans', verdana, arial, sans-serif; font-size: 17px; fill: rgb(42, 63, 95); fill-opacity: 1; white-space: pre;">Popularity Over Time by Warnings</text></g><g class="g-xtitle"><text class="xtitle" x="422.5" y="460.3" text-anchor="middle" style="opacity: 1; font-family: 'Open Sans', verdana, arial, sans-serif; font-size: 14px; fill: rgb(42, 63, 95); fill-opacity: 1; white-space: pre;">Release Year</text></g><g class="g-ytitle"><text class="ytitle" transform="rotate(-90,39.56875,260)" x="39.56875" y="260" text-anchor="middle" style="opacity: 1; font-family: 'Open Sans', verdana, arial, sans-serif; font-size: 14px; fill: rgb(42, 63, 95); fill-opacity: 1; white-space: pre;">Popularity</text></g></g></svg>