<svg class="main-svg" xmlns="http://www.w3.org/2000/svg" xmlns:xlink="http://www.w3.org/1999/xlink" width="1300" height="700" style="" viewBox="0 0 1300 700"><rect x="0" y="0" width="1300" height="700" style="fill: rgb(247, 247, 247); fill-opacity: 1;"/><defs id="defs-ca174f"><g class="clips"><clipPath id="clipca174fxyplot" class="plotclip"><rect width="1092" height="432"/></clipPath><clipPath class="axesclip" id="clipca174fx"><rect x="80" y="0" width="1092" height="700"/></clipPath><clipPath class="axesclip" id="clipca174fy"><rect x="0" y="100" width="1300" height="432"/></clipPath><clipPath class="axesclip" id="clipca174fxy"><rect x="80" y="100" width="1092" height="432"/></clipPath></g><g class="gradients"/><g class="patterns"/></defs><g class="bglayer"/><g class="layer-below"><g class="imagelayer"/><g class="shapelayer"/></g><g class="cartesianlayer"><g class="subplot xy"><g class="layer-subplot"><g class="shapelayer"/><g class="imagelayer"/></g><g class="minor-gridlayer"><g class="x"/><g class="y"/></g><g class="gridlayer"><g class="x"/><g class="y"><path class="ygrid crisp" transform="translate(0,517.01)" d="M80,0h1092" style="stroke: rgb(255, 255, 255); stroke-opacity: 1; stroke-width: 1px;"/><path class="ygrid crisp" transform="translate(0,461.94)" d="M80,0h1092" style="stroke: rgb(255, 255, 255); stroke-opacity: 1; stroke-width: 1px;"/><path class="ygrid crisp" transform="translate(0,406.87)" d="M80,0h1092" style="stroke: rgb(255, 255, 255); stroke-opacity: 1; stroke-width: 1px;"/><path class="ygrid crisp" transform="translate(0,351.8)" d="M80,0h1092" style="stroke: rgb(255, 255, 255); stroke-opacity: 1; stroke-width: 1px;"/><path class="ygrid crisp" transform="translate(0,296.73)" d="M80,0h1092" style="stroke: rgb(255, 255, 255); stroke-opacity: 1; stroke-width: 1px;"/><path class="ygrid crisp" transform="translate(0,241.65)" d="M80,0h1092" style="stroke: rgb(255, 255, 255); stroke-opacity: 1; stroke-width: 1px;"/><path class="ygrid crisp" transform="translate(0,186.57999999999998)" d="M80,0h1092" style="stroke: rgb(255, 255, 255); stroke-opacity: 1; stroke-width: 1px;"/><path class="ygrid crisp" transform="translate(0,131.51)" d="M80,0h1092" style="stroke: rgb(255, 255, 255); stroke-opacity: 1; stroke-width: 1px;"/></g></g><g class="zerolinelayer"/><g class="layer-between"><g class="shapelayer"/><g class="imagelayer"/></g><path class="xlines-below"/><path class="ylines-below"/><g class="overlines-below"/><g class="xaxislayer-below"/><g class="yaxislayer-below"/><g class="overaxes-below"/><g class="overplot"><g class="xy" transform="translate(80,100)" clip-path="url(#clipca174fxyplot)"><g class="boxlayer mlayer"><g class="trace boxes" style="opacity: 1;"><path class="box" d="M18.56,144.41H54.24M18.56,182.41H54.24V105.31H18.56ZM36.4,182.41V298.06M36.4,105.31V24.9M27.48,298.06H45.32M27.48,24.9H45.32" style="vector-effect: none; stroke-width: 2px; stroke: rgb(244, 214, 160); stroke-opacity: 1; fill: rgb(244, 214, 160); fill-opacity: 0.5;"/><g class="points"><path class="point" transform="translate(36.4,410.4)" d="M3,0A3,3 0 1,1 0,-3A3,3 0 0,1 3,0Z" style="opacity: 1; stroke-width: 0px; fill: rgb(244, 214, 160); fill-opacity: 1;"/><path class="point" transform="translate(36.4,379.56)" d="M3,0A3,3 0 1,1 0,-3A3,3 0 0,1 3,0Z" style="opacity: 1; stroke-width: 0px; fill: rgb(244, 214, 160); fill-opacity: 1;"/><path class="point" transform="translate(36.4,352.02)" d="M3,0A3,3 0 1,1 0,-3A3,3 0 0,1 3,0Z" style="opacity: 1; stroke-width: 0px; fill: rgb(244, 214, 160); fill-opacity: 1;"/><path class="point" transform="translate(36.4,343.21)" d="M3,0A3,3 0 1,1 0,-3A3,3 0 0,1 3,0Z" style="opacity: 1; stroke-width: 0px; fill: rgb(244, 214, 160); fill-opacity: 1;"/><path class="point" transform="translate(36.4,328.9)" d="M3,0A3,3 0 1,1 0,-3A3,3 0 0,1 3,0Z" style="opacity: 1; stroke-width: 0px; fill: rgb(244, 214, 160); fill-opacity: 1;"/><path class="point" transform="translate(36.4,306.87)" d="M3,0A3,3 0 1,1 0,-3A3,3 0 0,1 3,0Z" style="opacity: 1; stroke-width: 0px; fill: rgb(244, 214, 160); fill-opacity: 1;"/><path class="point" transform="translate(36.4,301.36)" d="M3,0A3,3 0 1,1 0,-3A3,3 0 0,1 3,0Z" style="opacity: 1; stroke-width: 0px; fill: rgb(244, 214, 160); fill-opacity: 1;"/></g></g><g class="trace boxes" style="opacity: 1;"><path class="box" d="M91.36,138.35H127.04M91.36,175.8H127.04V104.21H91.36ZM109.2,175.8V282.64M109.2,104.21V24.9M100.28,282.64H118.12M100.28,24.9H118.12" style="vector-effect: none; stroke-width: 2px; stroke: rgb(168, 203, 183); stroke-opacity: 1; fill: rgb(168, 203, 183); fill-opacity: 0.5;"/><g class="points"><path class="point" transform="translate(109.2,328.9)" d="M3,0A3,3 0 1,1 0,-3A3,3 0 0,1 3,0Z" style="opacity: 1; stroke-width: 0px; fill: rgb(168, 203, 183); fill-opacity: 1;"/><path class="point" transform="translate(109.2,301.36)" d="M3,0A3,3 0 1,1 0,-3A3,3 0 0,1 3,0Z" style="opacity: 1; stroke-width: 0px; fill: rgb(168, 203, 183); fill-opacity: 1;"/><path class="point" transform="translate(109.2,283.74)" d="M3,0A3,3 0 1,1 0,-3A3,3 0 0,1 3,0Z" style="opacity: 1; stroke-width: 0px; fill: rgb(168, 203, 183); fill-opacity: 1;"/></g></g><g class="trace boxes" style="opacity: 1;"><path class="box" d="M164.16,190.12H199.84M164.16,229.77H199.84V144.96H164.16ZM182,229.77V352.02M182,144.96V21.6M173.08,352.02H190.92M173.08,21.6H190.92" style="vector-effect: none; stroke-width: 2px; stroke: rgb(212, 185, 163); stroke-opacity: 1; fill: rgb(212, 185, 163); fill-opacity: 0.5;"/><g class="points"><path class="point" transform="translate(182,370.75)" d="M3,0A3,3 0 1,1 0,-3A3,3 0 0,1 3,0Z" style="opacity: 1; stroke-width: 0px; fill: rgb(212, 185, 163); fill-opacity: 1;"/><path class="point" transform="translate(182,368.55)" d="M3,0A3,3 0 1,1 0,-3A3,3 0 0,1 3,0Z" style="opacity: 1; stroke-width: 0px; fill: rgb(212, 185, 163); fill-opacity: 1;"/></g></g><g class="trace boxes" style="opacity: 1;"><path class="box" d="M236.96,148.81H272.64M236.96,187.36H272.64V106.41H236.96ZM254.8,187.36V301.36M254.8,106.41V29.31M245.88,301.36H263.72M245.88,29.31H263.72" style="vector-effect: none; stroke-width: 2px; stroke: rgb(166, 198, 217); stroke-opacity: 1; fill: rgb(166, 198, 217); fill-opacity: 0.5;"/><g class="points"><path class="point" transform="translate(254.8,341.01)" d="M3,0A3,3 0 1,1 0,-3A3,3 0 0,1 3,0Z" style="opacity: 1; stroke-width: 0px; fill: rgb(166, 198, 217); fill-opacity: 1;"/><path class="point" transform="translate(254.8,328.9)" d="M3,0A3,3 0 1,1 0,-3A3,3 0 0,1 3,0Z" style="opacity: 1; stroke-width: 0px; fill: rgb(166, 198, 217); fill-opacity: 1;"/><path class="point" transform="translate(254.8,317.88)" d="M3,0A3,3 0 1,1 0,-3A3,3 0 0,1 3,0Z" style="opacity: 1; stroke-width: 0px; fill: rgb(166, 198, 217); fill-opacity: 1;"/></g></g><g class="trace boxes" style="opacity: 1;"><path class="box" d="M309.76,191.77H345.44M309.76,237.48H345.44V154.87H309.76ZM327.6,237.48V360.84M327.6,154.87V42.53M318.68,360.84H336.52M318.68,42.53H336.52" style="vector-effect: none; stroke-width: 2px; stroke: rgb(179, 160, 161); stroke-opacity: 1; fill: rgb(179, 160, 161); fill-opacity: 0.5;"/><g class="points"><path class="point" transform="translate(327.6,383.97)" d="M3,0A3,3 0 1,1 0,-3A3,3 0 0,1 3,0Z" style="opacity: 1; stroke-width: 0px; fill: rgb(179, 160, 161); fill-opacity: 1;"/><path class="point" transform="translate(327.6,371.85)" d="M3,0A3,3 0 1,1 0,-3A3,3 0 0,1 3,0Z" style="opacity: 1; stroke-width: 0px; fill: rgb(179, 160, 161); fill-opacity: 1;"/><path class="point" transform="translate(327.6,371.85)" d="M3,0A3,3 0 1,1 0,-3A3,3 0 0,1 3,0Z" style="opacity: 1; stroke-width: 0px; fill: rgb(179, 160, 161); fill-opacity: 1;"/></g></g><g class="trace boxes" style="opacity: 1;"><path class="box" d="M382.56,197.28H418.24M382.56,242.98H418.24V157.07H382.56ZM400.4,242.98V371.85M400.4,157.07V42.53M391.48,371.85H409.32M391.48,42.53H409.32" style="vector-effect: none; stroke-width: 2px; stroke: rgb(110, 123, 122); stroke-opacity: 1; fill: rgb(110, 123, 122); fill-opacity: 0.5;"/><g class="points"><path class="point" transform="translate(400.4,383.97)" d="M3,0A3,3 0 1,1 0,-3A3,3 0 0,1 3,0Z" style="opacity: 1; stroke-width: 0px; fill: rgb(110, 123, 122); fill-opacity: 1;"/></g></g><g class="trace boxes" style="opacity: 1;"><path class="box" d="M455.36,190.12H491.04M455.36,237.2H491.04V147.44H455.36ZM473.2,237.2V371.85M473.2,147.44V42.53M464.28,371.85H482.12M464.28,42.53H482.12" style="vector-effect: none; stroke-width: 2px; stroke: rgb(153, 167, 164); stroke-opacity: 1; fill: rgb(153, 167, 164); fill-opacity: 0.5;"/><g class="points"><path class="point" transform="translate(473.2,383.97)" d="M3,0A3,3 0 1,1 0,-3A3,3 0 0,1 3,0Z" style="opacity: 1; stroke-width: 0px; fill: rgb(153, 167, 164); fill-opacity: 1;"/></g></g><g class="trace boxes" style="opacity: 1;"><path class="box" d="M528.16,213.25H563.84M528.16,249.59H563.84V173.6H528.16ZM546,249.59V357.53M546,173.6V68.96M537.08,357.53H554.92M537.08,68.96H554.92" style="vector-effect: none; stroke-width: 2px; stroke: rgb(196, 216, 193); stroke-opacity: 1; fill: rgb(196, 216, 193); fill-opacity: 0.5;"/><g class="points"><path class="point" transform="translate(546,380.66)" d="M3,0A3,3 0 1,1 0,-3A3,3 0 0,1 3,0Z" style="opacity: 1; stroke-width: 0px; fill: rgb(196, 216, 193); fill-opacity: 1;"/><path class="point" transform="translate(546,371.85)" d="M3,0A3,3 0 1,1 0,-3A3,3 0 0,1 3,0Z" style="opacity: 1; stroke-width: 0px; fill: rgb(196, 216, 193); fill-opacity: 1;"/><path class="point" transform="translate(546,370.75)" d="M3,0A3,3 0 1,1 0,-3A3,3 0 0,1 3,0Z" style="opacity: 1; stroke-width: 0px; fill: rgb(196, 216, 193); fill-opacity: 1;"/><path class="point" transform="translate(546,368.55)" d="M3,0A3,3 0 1,1 0,-3A3,3 0 0,1 3,0Z" style="opacity: 1; stroke-width: 0px; fill: rgb(196, 216, 193); fill-opacity: 1;"/><path class="point" transform="translate(546,368.55)" d="M3,0A3,3 0 1,1 0,-3A3,3 0 0,1 3,0Z" style="opacity: 1; stroke-width: 0px; fill: rgb(196, 216, 193); fill-opacity: 1;"/><path class="point" transform="translate(546,366.34)" d="M3,0A3,3 0 1,1 0,-3A3,3 0 0,1 3,0Z" style="opacity: 1; stroke-width: 0px; fill: rgb(196, 216, 193); fill-opacity: 1;"/><path class="point" transform="translate(546,59.05)" d="M3,0A3,3 0 1,1 0,-3A3,3 0 0,1 3,0Z" style="opacity: 1; stroke-width: 0px; fill: rgb(196, 216, 193); fill-opacity: 1;"/><path class="point" transform="translate(546,57.95)" d="M3,0A3,3 0 1,1 0,-3A3,3 0 0,1 3,0Z" style="opacity: 1; stroke-width: 0px; fill: rgb(196, 216, 193); fill-opacity: 1;"/><path class="point" transform="translate(546,56.85)" d="M3,0A3,3 0 1,1 0,-3A3,3 0 0,1 3,0Z" style="opacity: 1; stroke-width: 0px; fill: rgb(196, 216, 193); fill-opacity: 1;"/><path class="point" transform="translate(546,53.54)" d="M3,0A3,3 0 1,1 0,-3A3,3 0 0,1 3,0Z" style="opacity: 1; stroke-width: 0px; fill: rgb(196, 216, 193); fill-opacity: 1;"/><path class="point" transform="translate(546,51.34)" d="M3,0A3,3 0 1,1 0,-3A3,3 0 0,1 3,0Z" style="opacity: 1; stroke-width: 0px; fill: rgb(196, 216, 193); fill-opacity: 1;"/><path class="point" transform="translate(546,50.24)" d="M3,0A3,3 0 1,1 0,-3A3,3 0 0,1 3,0Z" style="opacity: 1; stroke-width: 0px; fill: rgb(196, 216, 193); fill-opacity: 1;"/></g></g><g class="trace boxes" style="opacity: 1;"><path class="box" d="M600.96,212.15H636.64M600.96,249.59H636.64V174.7H600.96ZM618.8,249.59V357.53M618.8,174.7V63.45M609.88,357.53H627.72M609.88,63.45H627.72" style="vector-effect: none; stroke-width: 2px; stroke: rgb(62, 74, 73); stroke-opacity: 1; fill: rgb(62, 74, 73); fill-opacity: 0.5;"/><g class="points"><path class="point" transform="translate(618.8,375.15)" d="M3,0A3,3 0 1,1 0,-3A3,3 0 0,1 3,0Z" style="opacity: 1; stroke-width: 0px; fill: rgb(62, 74, 73); fill-opacity: 1;"/><path class="point" transform="translate(618.8,370.75)" d="M3,0A3,3 0 1,1 0,-3A3,3 0 0,1 3,0Z" style="opacity: 1; stroke-width: 0px; fill: rgb(62, 74, 73); fill-opacity: 1;"/><path class="point" transform="translate(618.8,368.55)" d="M3,0A3,3 0 1,1 0,-3A3,3 0 0,1 3,0Z" style="opacity: 1; stroke-width: 0px; fill: rgb(62, 74, 73); fill-opacity: 1;"/><path class="point" transform="translate(618.8,368.55)" d="M3,0A3,3 0 1,1 0,-3A3,3 0 0,1 3,0Z" style="opacity: 1; stroke-width: 0px; fill: rgb(62, 74, 73); fill-opacity: 1;"/><path class="point" transform="translate(618.8,366.34)" d="M3,0A3,3 0 1,1 0,-3A3,3 0 0,1 3,0Z" style="opacity: 1; stroke-width: 0px; fill: rgb(62, 74, 73); fill-opacity: 1;"/><path class="point" transform="translate(618.8,59.05)" d="M3,0A3,3 0 1,1 0,-3A3,3 0 0,1 3,0Z" style="opacity: 1; stroke-width: 0px; fill: rgb(62, 74, 73); fill-opacity: 1;"/><path class="point" transform="translate(618.8,56.85)" d="M3,0A3,3 0 1,1 0,-3A3,3 0 0,1 3,0Z" style="opacity: 1; stroke-width: 0px; fill: rgb(62, 74, 73); fill-opacity: 1;"/><path class="point" transform="translate(618.8,56.85)" d="M3,0A3,3 0 1,1 0,-3A3,3 0 0,1 3,0Z" style="opacity: 1; stroke-width: 0px; fill: rgb(62, 74, 73); fill-opacity: 1;"/><path class="point" transform="translate(618.8,50.24)" d="M3,0A3,3 0 1,1 0,-3A3,3 0 0,1 3,0Z" style="opacity: 1; stroke-width: 0px; fill: rgb(62, 74, 73); fill-opacity: 1;"/><path class="point" transform="translate(618.8,37.02)" d="M3,0A3,3 0 1,1 0,-3A3,3 0 0,1 3,0Z" style="opacity: 1; stroke-width: 0px; fill: rgb(62, 74, 73); fill-opacity: 1;"/><path class="point" transform="translate(618.8,23.8)" d="M3,0A3,3 0 1,1 0,-3A3,3 0 0,1 3,0Z" style="opacity: 1; stroke-width: 0px; fill: rgb(62, 74, 73); fill-opacity: 1;"/><path class="point" transform="translate(618.8,21.6)" d="M3,0A3,3 0 1,1 0,-3A3,3 0 0,1 3,0Z" style="opacity: 1; stroke-width: 0px; fill: rgb(62, 74, 73); fill-opacity: 1;"/></g></g><g class="trace boxes" style="opacity: 1;"><path class="box" d="M673.76,234.17H709.44M673.76,265.01H709.44V207.74H673.76ZM691.6,265.01V349.82M691.6,207.74V135.05M682.68,349.82H700.52M682.68,135.05H700.52" style="vector-effect: none; stroke-width: 2px; stroke: rgb(184, 198, 208); stroke-opacity: 1; fill: rgb(184, 198, 208); fill-opacity: 0.5;"/><g class="points"><path class="point" transform="translate(691.6,371.85)" d="M3,0A3,3 0 1,1 0,-3A3,3 0 0,1 3,0Z" style="opacity: 1; stroke-width: 0px; fill: rgb(184, 198, 208); fill-opacity: 1;"/><path class="point" transform="translate(691.6,358.63)" d="M3,0A3,3 0 1,1 0,-3A3,3 0 0,1 3,0Z" style="opacity: 1; stroke-width: 0px; fill: rgb(184, 198, 208); fill-opacity: 1;"/><path class="point" transform="translate(691.6,356.43)" d="M3,0A3,3 0 1,1 0,-3A3,3 0 0,1 3,0Z" style="opacity: 1; stroke-width: 0px; fill: rgb(184, 198, 208); fill-opacity: 1;"/><path class="point" transform="translate(691.6,354.23)" d="M3,0A3,3 0 1,1 0,-3A3,3 0 0,1 3,0Z" style="opacity: 1; stroke-width: 0px; fill: rgb(184, 198, 208); fill-opacity: 1;"/><path class="point" transform="translate(691.6,354.23)" d="M3,0A3,3 0 1,1 0,-3A3,3 0 0,1 3,0Z" style="opacity: 1; stroke-width: 0px; fill: rgb(184, 198, 208); fill-opacity: 1;"/><path class="point" transform="translate(691.6,352.02)" d="M3,0A3,3 0 1,1 0,-3A3,3 0 0,1 3,0Z" style="opacity: 1; stroke-width: 0px; fill: rgb(184, 198, 208); fill-opacity: 1;"/><path class="point" transform="translate(691.6,119.63)" d="M3,0A3,3 0 1,1 0,-3A3,3 0 0,1 3,0Z" style="opacity: 1; stroke-width: 0px; fill: rgb(184, 198, 208); fill-opacity: 1;"/><path class="point" transform="translate(691.6,117.42)" d="M3,0A3,3 0 1,1 0,-3A3,3 0 0,1 3,0Z" style="opacity: 1; stroke-width: 0px; fill: rgb(184, 198, 208); fill-opacity: 1;"/><path class="point" transform="translate(691.6,107.51)" d="M3,0A3,3 0 1,1 0,-3A3,3 0 0,1 3,0Z" style="opacity: 1; stroke-width: 0px; fill: rgb(184, 198, 208); fill-opacity: 1;"/><path class="point" transform="translate(691.6,104.21)" d="M3,0A3,3 0 1,1 0,-3A3,3 0 0,1 3,0Z" style="opacity: 1; stroke-width: 0px; fill: rgb(184, 198, 208); fill-opacity: 1;"/></g></g><g class="trace boxes" style="opacity: 1;"><path class="box" d="M746.56,220.96H782.24M746.56,254.27H782.24V184.61H746.56ZM764.4,254.27V358.63M764.4,184.61V83.28M755.48,358.63H773.32M755.48,83.28H773.32" style="vector-effect: none; stroke-width: 2px; stroke: rgb(255, 200, 87); stroke-opacity: 1; fill: rgb(255, 200, 87); fill-opacity: 0.5;"/><g class="points"><path class="point" transform="translate(764.4,380.66)" d="M3,0A3,3 0 1,1 0,-3A3,3 0 0,1 3,0Z" style="opacity: 1; stroke-width: 0px; fill: rgb(255, 200, 87); fill-opacity: 1;"/><path class="point" transform="translate(764.4,375.15)" d="M3,0A3,3 0 1,1 0,-3A3,3 0 0,1 3,0Z" style="opacity: 1; stroke-width: 0px; fill: rgb(255, 200, 87); fill-opacity: 1;"/><path class="point" transform="translate(764.4,370.75)" d="M3,0A3,3 0 1,1 0,-3A3,3 0 0,1 3,0Z" style="opacity: 1; stroke-width: 0px; fill: rgb(255, 200, 87); fill-opacity: 1;"/><path class="point" transform="translate(764.4,368.55)" d="M3,0A3,3 0 1,1 0,-3A3,3 0 0,1 3,0Z" style="opacity: 1; stroke-width: 0px; fill: rgb(255, 200, 87); fill-opacity: 1;"/><path class="point" transform="translate(764.4,368.55)" d="M3,0A3,3 0 1,1 0,-3A3,3 0 0,1 3,0Z" style="opacity: 1; stroke-width: 0px; fill: rgb(255, 200, 87); fill-opacity: 1;"/><path class="point" transform="translate(764.4,366.34)" d="M3,0A3,3 0 1,1 0,-3A3,3 0 0,1 3,0Z" style="opacity: 1; stroke-width: 0px; fill: rgb(255, 200, 87); fill-opacity: 1;"/><path class="point" transform="translate(764.4,77.77)" d="M3,0A3,3 0 1,1 0,-3A3,3 0 0,1 3,0Z" style="opacity: 1; stroke-width: 0px; fill: rgb(255, 200, 87); fill-opacity: 1;"/><path class="point" transform="translate(764.4,75.57)" d="M3,0A3,3 0 1,1 0,-3A3,3 0 0,1 3,0Z" style="opacity: 1; stroke-width: 0px; fill: rgb(255, 200, 87); fill-opacity: 1;"/><path class="point" transform="translate(764.4,72.27)" d="M3,0A3,3 0 1,1 0,-3A3,3 0 0,1 3,0Z" style="opacity: 1; stroke-width: 0px; fill: rgb(255, 200, 87); fill-opacity: 1;"/><path class="point" transform="translate(764.4,68.96)" d="M3,0A3,3 0 1,1 0,-3A3,3 0 0,1 3,0Z" style="opacity: 1; stroke-width: 0px; fill: rgb(255, 200, 87); fill-opacity: 1;"/><path class="point" transform="translate(764.4,63.45)" d="M3,0A3,3 0 1,1 0,-3A3,3 0 0,1 3,0Z" style="opacity: 1; stroke-width: 0px; fill: rgb(255, 200, 87); fill-opacity: 1;"/><path class="point" transform="translate(764.4,59.05)" d="M3,0A3,3 0 1,1 0,-3A3,3 0 0,1 3,0Z" style="opacity: 1; stroke-width: 0px; fill: rgb(255, 200, 87); fill-opacity: 1;"/><path class="point" transform="translate(764.4,56.85)" d="M3,0A3,3 0 1,1 0,-3A3,3 0 0,1 3,0Z" style="opacity: 1; stroke-width: 0px; fill: rgb(255, 200, 87); fill-opacity: 1;"/><path class="point" transform="translate(764.4,50.24)" d="M3,0A3,3 0 1,1 0,-3A3,3 0 0,1 3,0Z" style="opacity: 1; stroke-width: 0px; fill: rgb(255, 200, 87); fill-opacity: 1;"/><path class="point" transform="translate(764.4,23.8)" d="M3,0A3,3 0 1,1 0,-3A3,3 0 0,1 3,0Z" style="opacity: 1; stroke-width: 0px; fill: rgb(255, 200, 87); fill-opacity: 1;"/></g></g><g class="trace boxes" style="opacity: 1;"><path class="box" d="M819.36,208.84H855.04M819.36,244.09H855.04V176.35H819.36ZM837.2,244.09V344.32M837.2,176.35V75.57M828.28,344.32H846.12M828.28,75.57H846.12" style="vector-effect: none; stroke-width: 2px; stroke: rgb(255, 225, 86); stroke-opacity: 1; fill: rgb(255, 225, 86); fill-opacity: 0.5;"/><g class="points"><path class="point" transform="translate(837.2,370.75)" d="M3,0A3,3 0 1,1 0,-3A3,3 0 0,1 3,0Z" style="opacity: 1; stroke-width: 0px; fill: rgb(255, 225, 86); fill-opacity: 1;"/><path class="point" transform="translate(837.2,366.34)" d="M3,0A3,3 0 1,1 0,-3A3,3 0 0,1 3,0Z" style="opacity: 1; stroke-width: 0px; fill: rgb(255, 225, 86); fill-opacity: 1;"/><path class="point" transform="translate(837.2,357.53)" d="M3,0A3,3 0 1,1 0,-3A3,3 0 0,1 3,0Z" style="opacity: 1; stroke-width: 0px; fill: rgb(255, 225, 86); fill-opacity: 1;"/><path class="point" transform="translate(837.2,347.62)" d="M3,0A3,3 0 1,1 0,-3A3,3 0 0,1 3,0Z" style="opacity: 1; stroke-width: 0px; fill: rgb(255, 225, 86); fill-opacity: 1;"/><path class="point" transform="translate(837.2,68.96)" d="M3,0A3,3 0 1,1 0,-3A3,3 0 0,1 3,0Z" style="opacity: 1; stroke-width: 0px; fill: rgb(255, 225, 86); fill-opacity: 1;"/><path class="point" transform="translate(837.2,63.45)" d="M3,0A3,3 0 1,1 0,-3A3,3 0 0,1 3,0Z" style="opacity: 1; stroke-width: 0px; fill: rgb(255, 225, 86); fill-opacity: 1;"/><path class="point" transform="translate(837.2,59.05)" d="M3,0A3,3 0 1,1 0,-3A3,3 0 0,1 3,0Z" style="opacity: 1; stroke-width: 0px; fill: rgb(255, 225, 86); fill-opacity: 1;"/><path class="point" transform="translate(837.2,56.85)" d="M3,0A3,3 0 1,1 0,-3A3,3 0 0,1 3,0Z" style="opacity: 1; stroke-width: 0px; fill: rgb(255, 225, 86); fill-opacity: 1;"/><path class="point" transform="translate(837.2,56.85)" d="M3,0A3,3 0 1,1 0,-3A3,3 0 0,1 3,0Z" style="opacity: 1; stroke-width: 0px; fill: rgb(255, 225, 86); fill-opacity: 1;"/><path class="point" transform="translate(837.2,50.24)" d="M3,0A3,3 0 1,1 0,-3A3,3 0 0,1 3,0Z" style="opacity: 1; stroke-width: 0px; fill: rgb(255, 225, 86); fill-opacity: 1;"/></g></g><g class="trace boxes" style="opacity: 1;"><path class="box" d="M892.16,176.9H927.84M892.16,217.65H927.84V143.86H892.16ZM910,217.65V325.59M910,143.86V34.82M901.08,325.59H918.92M901.08,34.82H918.92" style="vector-effect: none; stroke-width: 2px; stroke: rgb(113, 169, 247); stroke-opacity: 1; fill: rgb(113, 169, 247); fill-opacity: 0.5;"/><g class="points"><path class="point" transform="translate(910,371.85)" d="M3,0A3,3 0 1,1 0,-3A3,3 0 0,1 3,0Z" style="opacity: 1; stroke-width: 0px; fill: rgb(113, 169, 247); fill-opacity: 1;"/><path class="point" transform="translate(910,361.94)" d="M3,0A3,3 0 1,1 0,-3A3,3 0 0,1 3,0Z" style="opacity: 1; stroke-width: 0px; fill: rgb(113, 169, 247); fill-opacity: 1;"/><path class="point" transform="translate(910,352.02)" d="M3,0A3,3 0 1,1 0,-3A3,3 0 0,1 3,0Z" style="opacity: 1; stroke-width: 0px; fill: rgb(113, 169, 247); fill-opacity: 1;"/><path class="point" transform="translate(910,350.92)" d="M3,0A3,3 0 1,1 0,-3A3,3 0 0,1 3,0Z" style="opacity: 1; stroke-width: 0px; fill: rgb(113, 169, 247); fill-opacity: 1;"/><path class="point" transform="translate(910,334.4)" d="M3,0A3,3 0 1,1 0,-3A3,3 0 0,1 3,0Z" style="opacity: 1; stroke-width: 0px; fill: rgb(113, 169, 247); fill-opacity: 1;"/><path class="point" transform="translate(910,331.1)" d="M3,0A3,3 0 1,1 0,-3A3,3 0 0,1 3,0Z" style="opacity: 1; stroke-width: 0px; fill: rgb(113, 169, 247); fill-opacity: 1;"/><path class="point" transform="translate(910,21.6)" d="M3,0A3,3 0 1,1 0,-3A3,3 0 0,1 3,0Z" style="opacity: 1; stroke-width: 0px; fill: rgb(113, 169, 247); fill-opacity: 1;"/></g></g><g class="trace boxes" style="opacity: 1;"><path class="box" d="M964.96,218.75H1000.64M964.96,249.59H1000.64V182.41H964.96ZM982.8,249.59V347.62M982.8,182.41V83.28M973.88,347.62H991.72M973.88,83.28H991.72" style="vector-effect: none; stroke-width: 2px; stroke: rgb(255, 127, 81); stroke-opacity: 1; fill: rgb(255, 127, 81); fill-opacity: 0.5;"/><g class="points"><path class="point" transform="translate(982.8,380.66)" d="M3,0A3,3 0 1,1 0,-3A3,3 0 0,1 3,0Z" style="opacity: 1; stroke-width: 0px; fill: rgb(255, 127, 81); fill-opacity: 1;"/><path class="point" transform="translate(982.8,375.15)" d="M3,0A3,3 0 1,1 0,-3A3,3 0 0,1 3,0Z" style="opacity: 1; stroke-width: 0px; fill: rgb(255, 127, 81); fill-opacity: 1;"/><path class="point" transform="translate(982.8,371.85)" d="M3,0A3,3 0 1,1 0,-3A3,3 0 0,1 3,0Z" style="opacity: 1; stroke-width: 0px; fill: rgb(255, 127, 81); fill-opacity: 1;"/><path class="point" transform="translate(982.8,370.75)" d="M3,0A3,3 0 1,1 0,-3A3,3 0 0,1 3,0Z" style="opacity: 1; stroke-width: 0px; fill: rgb(255, 127, 81); fill-opacity: 1;"/><path class="point" transform="translate(982.8,368.55)" d="M3,0A3,3 0 1,1 0,-3A3,3 0 0,1 3,0Z" style="opacity: 1; stroke-width: 0px; fill: rgb(255, 127, 81); fill-opacity: 1;"/><path class="point" transform="translate(982.8,368.55)" d="M3,0A3,3 0 1,1 0,-3A3,3 0 0,1 3,0Z" style="opacity: 1; stroke-width: 0px; fill: rgb(255, 127, 81); fill-opacity: 1;"/><path class="point" transform="translate(982.8,366.34)" d="M3,0A3,3 0 1,1 0,-3A3,3 0 0,1 3,0Z" style="opacity: 1; stroke-width: 0px; fill: rgb(255, 127, 81); fill-opacity: 1;"/><path class="point" transform="translate(982.8,357.53)" d="M3,0A3,3 0 1,1 0,-3A3,3 0 0,1 3,0Z" style="opacity: 1; stroke-width: 0px; fill: rgb(255, 127, 81); fill-opacity: 1;"/><path class="point" transform="translate(982.8,356.43)" d="M3,0A3,3 0 1,1 0,-3A3,3 0 0,1 3,0Z" style="opacity: 1; stroke-width: 0px; fill: rgb(255, 127, 81); fill-opacity: 1;"/><path class="point" transform="translate(982.8,352.02)" d="M3,0A3,3 0 1,1 0,-3A3,3 0 0,1 3,0Z" style="opacity: 1; stroke-width: 0px; fill: rgb(255, 127, 81); fill-opacity: 1;"/><path class="point" transform="translate(982.8,350.92)" d="M3,0A3,3 0 1,1 0,-3A3,3 0 0,1 3,0Z" style="opacity: 1; stroke-width: 0px; fill: rgb(255, 127, 81); fill-opacity: 1;"/><path class="point" transform="translate(982.8,77.77)" d="M3,0A3,3 0 1,1 0,-3A3,3 0 0,1 3,0Z" style="opacity: 1; stroke-width: 0px; fill: rgb(255, 127, 81); fill-opacity: 1;"/><path class="point" transform="translate(982.8,77.77)" d="M3,0A3,3 0 1,1 0,-3A3,3 0 0,1 3,0Z" style="opacity: 1; stroke-width: 0px; fill: rgb(255, 127, 81); fill-opacity: 1;"/><path class="point" transform="translate(982.8,75.57)" d="M3,0A3,3 0 1,1 0,-3A3,3 0 0,1 3,0Z" style="opacity: 1; stroke-width: 0px; fill: rgb(255, 127, 81); fill-opacity: 1;"/><path class="point" transform="translate(982.8,74.47)" d="M3,0A3,3 0 1,1 0,-3A3,3 0 0,1 3,0Z" style="opacity: 1; stroke-width: 0px; fill: rgb(255, 127, 81); fill-opacity: 1;"/><path class="point" transform="translate(982.8,72.27)" d="M3,0A3,3 0 1,1 0,-3A3,3 0 0,1 3,0Z" style="opacity: 1; stroke-width: 0px; fill: rgb(255, 127, 81); fill-opacity: 1;"/><path class="point" transform="translate(982.8,68.96)" d="M3,0A3,3 0 1,1 0,-3A3,3 0 0,1 3,0Z" style="opacity: 1; stroke-width: 0px; fill: rgb(255, 127, 81); fill-opacity: 1;"/><path class="point" transform="translate(982.8,68.96)" d="M3,0A3,3 0 1,1 0,-3A3,3 0 0,1 3,0Z" style="opacity: 1; stroke-width: 0px; fill: rgb(255, 127, 81); fill-opacity: 1;"/><path class="point" transform="translate(982.8,56.85)" d="M3,0A3,3 0 1,1 0,-3A3,3 0 0,1 3,0Z" style="opacity: 1; stroke-width: 0px; fill: rgb(255, 127, 81); fill-opacity: 1;"/><path class="point" transform="translate(982.8,45.83)" d="M3,0A3,3 0 1,1 0,-3A3,3 0 0,1 3,0Z" style="opacity: 1; stroke-width: 0px; fill: rgb(255, 127, 81); fill-opacity: 1;"/></g></g><g class="trace boxes" style="opacity: 1;"><path class="box" d="M1037.76,213.25H1073.44M1037.76,249.59H1073.44V175.25H1037.76ZM1055.6,249.59V357.53M1055.6,175.25V68.96M1046.68,357.53H1064.52M1046.68,68.96H1064.52" style="vector-effect: none; stroke-width: 2px; stroke: rgb(181, 131, 141); stroke-opacity: 1; fill: rgb(181, 131, 141); fill-opacity: 0.5;"/><g class="points"><path class="point" transform="translate(1055.6,380.66)" d="M3,0A3,3 0 1,1 0,-3A3,3 0 0,1 3,0Z" style="opacity: 1; stroke-width: 0px; fill: rgb(181, 131, 141); fill-opacity: 1;"/><path class="point" transform="translate(1055.6,368.55)" d="M3,0A3,3 0 1,1 0,-3A3,3 0 0,1 3,0Z" style="opacity: 1; stroke-width: 0px; fill: rgb(181, 131, 141); fill-opacity: 1;"/><path class="point" transform="translate(1055.6,368.55)" d="M3,0A3,3 0 1,1 0,-3A3,3 0 0,1 3,0Z" style="opacity: 1; stroke-width: 0px; fill: rgb(181, 131, 141); fill-opacity: 1;"/><path class="point" transform="translate(1055.6,366.34)" d="M3,0A3,3 0 1,1 0,-3A3,3 0 0,1 3,0Z" style="opacity: 1; stroke-width: 0px; fill: rgb(181, 131, 141); fill-opacity: 1;"/><path class="point" transform="translate(1055.6,63.45)" d="M3,0A3,3 0 1,1 0,-3A3,3 0 0,1 3,0Z" style="opacity: 1; stroke-width: 0px; fill: rgb(181, 131, 141); fill-opacity: 1;"/><path class="point" transform="translate(1055.6,59.05)" d="M3,0A3,3 0 1,1 0,-3A3,3 0 0,1 3,0Z" style="opacity: 1; stroke-width: 0px; fill: rgb(181, 131, 141); fill-opacity: 1;"/><path class="point" transform="translate(1055.6,56.85)" d="M3,0A3,3 0 1,1 0,-3A3,3 0 0,1 3,0Z" style="opacity: 1; stroke-width: 0px; fill: rgb(181, 131, 141); fill-opacity: 1;"/><path class="point" transform="translate(1055.6,50.24)" d="M3,0A3,3 0 1,1 0,-3A3,3 0 0,1 3,0Z" style="opacity: 1; stroke-width: 0px; fill: rgb(181, 131, 141); fill-opacity: 1;"/><path class="point" transform="translate(1055.6,21.6)" d="M3,0A3,3 0 1,1 0,-3A3,3 0 0,1 3,0Z" style="opacity: 1; stroke-width: 0px; fill: rgb(181, 131, 141); fill-opacity: 1;"/></g></g></g></g></g><path class="xlines-above crisp" d="M0,0" style="fill: none;"/><path class="ylines-above crisp" d="M0,0" style="fill: none;"/><g class="overlines-above"/><g class="xaxislayer-above"><g class="xtick"><text text-anchor="start" x="0" y="545" transform="translate(116.4,0) rotate(30,0,539)" style="font-family: 'Open Sans', verdana, arial, sans-serif; font-size: 12px; fill: rgb(42, 63, 95); fill-opacity: 1; white-space: pre; opacity: 1;">Moving relationship stories</text></g><g class="xtick"><text text-anchor="start" x="0" y="545" transform="translate(189.2,0) rotate(30,0,539)" style="font-family: 'Open Sans', verdana, arial, sans-serif; font-size: 12px; fill: rgb(42, 63, 95); fill-opacity: 1; white-space: pre; opacity: 1;">Powerful stories of heartbreak and suffering</text></g><g class="xtick"><text text-anchor="start" x="0" y="545" transform="translate(262,0) rotate(30,0,539)" style="font-family: 'Open Sans', verdana, arial, sans-serif; font-size: 12px; fill: rgb(42, 63, 95); fill-opacity: 1; white-space: pre; opacity: 1;">Suspenseful crime thrillers</text></g><g class="xtick"><text text-anchor="start" x="0" y="545" transform="translate(334.8,0) rotate(30,0,539)" style="font-family: 'Open Sans', verdana, arial, sans-serif; font-size: 12px; fill: rgb(42, 63, 95); fill-opacity: 1; white-space: pre; opacity: 1;">Touching and sentimental family stories</text></g><g class="xtick"><text text-anchor="start" x="0" y="545" transform="translate(407.6,0) rotate(30,0,539)" style="font-family: 'Open Sans', verdana, arial, sans-serif; font-size: 12px; fill: rgb(42, 63, 95); fill-opacity: 1; white-space: pre; opacity: 1;">Crude humor and satire</text></g><g class="xtick"><text text-anchor="start" x="0" y="545" transform="translate(480.4,0) rotate(30,0,539)" style="font-family: 'Open Sans', verdana, arial, sans-serif; font-size: 12px; fill: rgb(42, 63, 95); fill-opacity: 1; white-space: pre; opacity: 1;">Funny jokes and crude humor</text></g><g class="xtick"><text text-anchor="start" x="0" y="545" transform="translate(553.2,0) rotate(30,0,539)" style="font-family: 'Open Sans', verdana, arial, sans-serif; font-size: 12px; fill: rgb(42, 63, 95); fill-opacity: 1; white-space: pre; opacity: 1;">Gags, jokes, and slapstick humor</text></g><g class="xtick"><text text-anchor="start" x="0" y="545" transform="translate(626,0) rotate(30,0,539)" style="font-family: 'Open Sans', verdana, arial, sans-serif; font-size: 12px; fill: rgb(42, 63, 95); fill-opacity: 1; white-space: pre; opacity: 1;">Twisted dark psychological thriller</text></g><g class="xtick"><text text-anchor="start" x="0" y="545" transform="translate(698.8,0) rotate(30,0,539)" style="font-family: 'Open Sans', verdana, arial, sans-serif; font-size: 12px; fill: rgb(42, 63, 95); fill-opacity: 1; white-space: pre; opacity: 1;">Terrifying, haunted, and supernatural horror</text></g><g class="xtick"><text text-anchor="start" x="0" y="545" transform="translate(771.6,0) rotate(30,0,539)" style="font-family: 'Open Sans', verdana, arial, sans-serif; font-size: 12px; fill: rgb(42, 63, 95); fill-opacity: 1; white-space: pre; opacity: 1;">Sci-fi horror, creatures, and aliens</text></g><g class="xtick"><text text-anchor="start" x="0" y="545" transform="translate(844.4,0) rotate(30,0,539)" style="font-family: 'Open Sans', verdana, arial, sans-serif; font-size: 12px; fill: rgb(42, 63, 95); fill-opacity: 1; white-space: pre; opacity: 1;">Horror, the undead and monster classics</text></g><g class="xtick"><text text-anchor="start" x="0" y="545" transform="translate(917.2,0) rotate(30,0,539)" style="font-family: 'Open Sans', verdana, arial, sans-serif; font-size: 12px; fill: rgb(42, 63, 95); fill-opacity: 1; white-space: pre; opacity: 1;">Creepy, chilling, and terrifying horror</text></g><g class="xtick"><text text-anchor="start" x="0" y="545" transform="translate(990,0) rotate(30,0,539)" style="font-family: 'Open Sans', verdana, arial, sans-serif; font-size: 12px; fill: rgb(42, 63, 95); fill-opacity: 1; white-space: pre; opacity: 1;">Intense violence and sexual transgression</text></g><g class="xtick"><text text-anchor="start" x="0" y="545" transform="translate(1062.8,0) rotate(30,0,539)" style="font-family: 'Open Sans', verdana, arial, sans-serif; font-size: 12px; fill: rgb(42, 63, 95); fill-opacity: 1; white-space: pre; opacity: 1;">Gory, gruesome, and slasher horror</text></g><g class="xtick"><text text-anchor="start" x="0" y="545" transform="translate(1135.6,0) rotate(30,0,539)" style="font-family: 'Open Sans', verdana, arial, sans-serif; font-size: 12px; fill: rgb(42, 63, 95); fill-opacity: 1; white-space: pre; opacity: 1;">Gothic and eerie haunting horror</text></g></g><g class="yaxislayer-above"><g class="ytick"><text text-anchor="end" x="79" y="4.199999999999999" transform="translate(0,517.01)" style="font-family: 'Open Sans', verdana, arial, sans-serif; font-size: 12px; fill: rgb(42, 63, 95); fill-opacity: 1; white-space: pre; opacity: 1;">1</text></g><g class="ytick"><text text-anchor="end" x="79" y="4.199999999999999" style="font-family: 'Open Sans', verdana, arial, sans-serif; font-size: 12px; fill: rgb(42, 63, 95); fill-opacity: 1; white-space: pre; opacity: 1;" transform="translate(0,461.94)">1.5</text></g><g class="ytick"><text text-anchor="end" x="79" y="4.199999999999999" style="font-family: 'Open Sans', verdana, arial, sans-serif; font-size: 12px; fill: rgb(42, 63, 95); fill-opacity: 1; white-space: pre; opacity: 1;" transform="translate(0,406.87)">2</text></g><g class="ytick"><text text-anchor="end" x="79" y="4.199999999999999" style="font-family: 'Open Sans', verdana, arial, sans-serif; font-size: 12px; fill: rgb(42, 63, 95); fill-opacity: 1; white-space: pre; opacity: 1;" transform="translate(0,351.8)">2.5</text></g><g class="ytick"><text text-anchor="end" x="79" y="4.199999999999999" style="font-family: 'Open Sans', verdana, arial, sans-serif; font-size: 12px; fill: rgb(42, 63, 95); fill-opacity: 1; white-space: pre; opacity: 1;" transform="translate(0,296.73)">3</text></g><g class="ytick"><text text-anchor="end" x="79" y="4.199999999999999" style="font-family: 'Open Sans', verdana, arial, sans-serif; font-size: 12px; fill: rgb(42, 63, 95); fill-opacity: 1; white-space: pre; opacity: 1;" transform="translate(0,241.65)">3.5</text></g><g class="ytick"><text text-anchor="end" x="79" y="4.199999999999999" style="font-family: 'Open Sans', verdana, arial, sans-serif; font-size: 12px; fill: rgb(42, 63, 95); fill-opacity: 1; white-space: pre; opacity: 1;" transform="translate(0,186.57999999999998)">4</text></g><g class="ytick"><text text-anchor="end" x="79" y="4.199999999999999" style="font-family: 'Open Sans', verdana, arial, sans-serif; font-size: 12px; fill: rgb(42, 63, 95); fill-opacity: 1; white-space: pre; opacity: 1;" transform="translate(0,131.51)">4.5</text></g></g><g class="overaxes-above"/></g></g><g class="polarlayer"/><g class="smithlayer"/><g class="ternarylayer"/><g class="geolayer"/><g class="funnelarealayer"/><g class="pielayer"/><g class="iciclelayer"/><g class="treemaplayer"/><g class="sunburstlayer"/><g class="glimages"/><defs id="topdefs-ca174f"><g class="clips"/></defs><g class="layer-above"><g class="imagelayer"/><g class="shapelayer"/></g><g class="infolayer"><g class="g-gtitle"><text class="gtitle" x="65" y="50" text-anchor="start" dy="0em" style="opacity: 1; font-family: 'Open Sans', verdana, arial, sans-serif; font-size: 17px; fill: rgb(42, 63, 95); fill-opacity: 1; white-space: pre;">Rating Distribution for Most Recurring Themes</text></g><g class="g-xtitle"/><g class="g-ytitle"><text class="ytitle" transform="rotate(-90,42.9125,316)" x="42.9125" y="316" text-anchor="middle" style="opacity: 1; font-family: 'Open Sans', verdana, arial, sans-serif; font-size: 14px; fill: rgb(42, 63, 95); fill-opacity: 1; white-space: pre;">Rating</text></g></g></svg>